<svg xmlns="http://www.w3.org/2000/svg" viewBox="0 0 100 100" width="100" height="100">
  <!-- Background gradient -->
  <defs>
    <linearGradient id="logoGradient" x1="0%" y1="0%" x2="100%" y2="100%">
      <stop offset="0%" style="stop-color:#a855f7;stop-opacity:1" />
      <stop offset="50%" style="stop-color:#ec4899;stop-opacity:1" />
      <stop offset="100%" style="stop-color:#3b82f6;stop-opacity:1" />
    </linearGradient>
  </defs>
  
  <!-- Background circle with gradient -->
  <circle cx="50" cy="50" r="45" fill="url(#logoGradient)" stroke="#1e40af" stroke-width="2"/>
  
  <!-- Electric plug icon - larger and centered -->
  <g transform="translate(20, 20)" fill="white">
    <path d="M16.5 3c0-.83-.67-1.5-1.5-1.5s-1.5.67-1.5 1.5v4c0 .83.67 1.5 1.5 1.5s1.5-.67 1.5-1.5V3zM11 3c0-.83-.67-1.5-1.5-1.5S8 2.17 8 3v4c0 .83.67 1.5 1.5 1.5S11 7.83 11 7V3zM6 8.5C6 7.12 7.12 6 8.5 6h7C16.88 6 18 7.12 18 8.5v2c0 .28-.22.5-.5.5h-1v2c0 2.21-1.79 4-4 4s-4-1.79-4-4v-2h-1c-.28 0-.5-.22-.5-.5v-2zm6 10.5c0 .83.67 1.5 1.5 1.5s1.5-.67 1.5-1.5-1.5-.67-1.5-1.5-.67-1.5-1.5-1.5S12 18.17 12 19z" transform="scale(2.5)"/>
  </g>
</svg> 