<svg version="1.1" id="Layer_1" xmlns:x="ns_extend;" xmlns:i="ns_ai;" xmlns:graph="ns_graphs;" xmlns="http://www.w3.org/2000/svg" xmlns:xlink="http://www.w3.org/1999/xlink" x="0px" y="0px" viewBox="0 0 64.5 42" style="enable-background:new 0 0 64.5 42;" xml:space="preserve">
 <metadata>
  <sfw xmlns="ns_sfw;">
   <slices>
   </slices>
   <sliceSourceBounds bottomLeftOrigin="true" height="42" width="64.5" x="167" y="179">
   </sliceSourceBounds>
  </sfw>
 </metadata>
 <g>
  <path d="M61.1,10.4c0,0-0.2-0.2-0.7-0.4c-0.5,0.3-1.1,0.4-1.6,0.4c-1.6,0-3-1.2-3-2.6c0-1.4,1.4-2.6,3-2.6c0.7,0,0.9,0.1,1.2,0
		c0.2,0,0.2-0.1,0.2-0.1c-0.4-0.8-3.2,0-3.2,0l-0.6-1.7c0,0,0.8-0.6,3.2-0.6c2.1-0.1,4,1,4,2.6c0,1.5,0,2.4,0,2.4s-0.1,0.9,0.8,1.1
		v1.6H61.1z M60,7c-0.4,0-0.7,0.4-0.7,0.8c0,0.5,0.3,0.8,0.7,0.8c0.4,0,0.7-0.4,0.7-0.8C60.7,7.3,60.4,7,60,7L60,7z M50.7,8v0.1
		c0,0.3,0.3,0.6,0.6,0.6v1.6H47V8.8c0.3,0,0.6-0.3,0.6-0.6V2.4c0-0.3-0.3-0.6-0.6-0.6V0h3.7v6.1l0.8-0.8c0,0-0.4,0-0.4-0.5V3.2h4.2
		v1.6c0,0.5-0.3,0.5-0.6,0.6l-1.1,1L55,8.3c0.2,0.3,0.4,0.4,0.7,0.4v1.7h-2.9L50.7,8z M42.4,9.7c-0.4,0.5-1.1,0.8-1.9,0.8
		c-1.2,0-2.2-0.7-2.2-1.7V5.6C38.3,5.3,38,5,37.7,5V3.3h3.5l0,4.2c0,0.3,0.3,0.6,0.6,0.6c0.3,0,0.6-0.3,0.6-0.6v-2
		c0-0.3-0.3-0.6-0.6-0.6V3.3h3.7v4.6c0,0.3,0.3,0.6,0.6,0.6v1.8h-3.7V9.7z M35,5.9c1.5,0.3,2.3,1,2.3,2.3c0,1.3-1.1,2.3-2.4,2.3
		c-0.6,0-1.3,0-1.8-0.2c-0.4-0.1-0.5,0.1-0.5,0.1h-1.3V8.2h1.2c0.6,0.9,2,1,2.1,0.6c0.1-0.4-1-0.6-1-0.6c-1.5-0.2-2.4-1.1-2.4-2.5
		c0-1.3,1.1-2.4,2.5-2.4c0.6,0,1.2,0.1,1.7,0.3c0,0,0.1-0.2,0.3-0.2h1.4v2.1h-1.5c-0.4-0.5-1.3-0.9-1.6-0.4C33.5,5.5,35,5.9,35,5.9
		L35,5.9z M26.5,6c0-0.4-0.4-0.8-0.8-0.8V3.3c0.4,0,0.8-0.4,0.8-0.8V1.1h3v1.4c0,0.4,0.4,0.8,0.8,0.8v1.8c-0.4,0-0.8,0.4-0.8,0.8
		v1.8c0,0.4,0.4,0.8,0.8,0.8v1.8h-3.8V6z M21,8.8c0.3,0,0.6-0.3,0.6-0.6V5.7c0-0.3-0.3-0.6-0.6-0.6V3.3h3.7v4.8
		c0,0.3,0.3,0.6,0.6,0.6v1.6H21V8.8z M21.6,0.4h3.1v2.3h-3.1V0.4z M16.8,6.2c0-0.3-0.3-0.6-0.6-0.6c-0.3,0-0.6,0.3-0.6,0.6v2
		c0,0.3,0.3,0.6,0.6,0.6v1.6h-4.3V8.8c0.3,0,0.6-0.3,0.6-0.6V5.8c0-0.3-0.3-0.6-0.6-0.6V3.3h3.7V4c0.4-0.5,1.1-0.8,1.9-0.8
		c1.2,0,2.2,0.7,2.2,1.7v3.3c0,0.3,0.3,0.6,0.6,0.6v1.6h-3.5L16.8,6.2z M5.4,11.1c-3,0-5.4-2.5-5.4-5.5s2.4-5.5,5.4-5.5
		c3,0,5.4,2.5,5.4,5.5S8.4,11.1,5.4,11.1L5.4,11.1z M6.5,3.7c0-1.4-2.1-1.4-2.1,0v3.8c0,0.6,0.5,1.1,1.1,1.1c0.6,0,1-0.5,1-1.1V3.7z
		 M64.4,32.9c0,2.9-2.3,5.3-5.2,5.3H39.9c0,0-2.5-0.2-7.5,3.8c-5-4-7.5-3.8-7.5-3.8H5.5c-2.9,0-5.2-2.4-5.2-5.3V11.5h64.1V32.9z
		 M24.6,30.8c1.6-0.6,2.2-2,2.2-2s-1.4,0.6-1.3-0.3c0.1-0.9,0.6-2.8,0.7-3.7c0.1-0.9-0.3-1.5-1-1.6c-0.8-0.1-1,0.2-1.4,0.8
		c-0.2,0.3-0.8,0.5-0.6,0.7c0,0,0.4,0.3,0.1,1.4c-0.2,1.1-0.5,3-0.6,3.5C22.6,30.1,22.7,31.5,24.6,30.8L24.6,30.8z M17.2,16.7
		c-3.9,0.1-7,0.6-7.7,4.4c0,0,2.1-1,4.3-1.1c2.3-0.1,4.8-0.2,5.9-0.4l-2.3,10.8c0,0-2.3,0.6-4.1-0.8c0,0,3.5-1.8,4-3.7
		c0.5-1.9,1.1-5,1.1-5L12.6,22c0,0,0.3-0.6,0.5-0.9c0,0-3.2,0.9-4.4,4.1c-1.2,3.4,1,6.5,3.7,7.5c2.2,0.8,5.6,0.6,8.4-3.2
		c0,0-0.9,0.3-2.1,0.6l2.1-10.6c0,0,2.9-0.6,3.9-3.9C24.7,15.6,21.3,16.5,17.2,16.7L17.2,16.7z M25.5,19.6c-1,0.5-1.8,1.4-1.8,1.4
		c0.4,0.2,1.8,1,1.8,1l2-1.5C26.7,20.1,25.5,19.6,25.5,19.6L25.5,19.6z M35.7,21.6c-0.5-0.1-0.6,0.4-2.4-0.2c0,0-0.3-0.1-0.7,0
		c-0.3,0.2-2.6,1.1-3.5,2.9c-0.9,1.8-0.3,3.9,0.9,4.9l-2,1.9c0,0,1.2,1.6,4,0.7c2.8-0.9,2.5-4,2.7-4.6c0.1-0.6,0.8-3.7,1.2-4.6
		C36.4,21.8,36.2,21.7,35.7,21.6L35.7,21.6z M43.8,19.4c-0.4-0.2-2.2-0.8-4.2,0.6c-1.9,1.4-2,3.8-1.9,5.2c0.1,1.4,1.1,2.4,3.1,1.8
		c2-0.6,2.7-2.2,2.7-2.2c-1.7,0.8-2.6,0.9-3.2,0.4c-0.6-0.5-0.1-1.6-0.1-1.6l4.5-1C45.3,20.2,44.2,19.6,43.8,19.4L43.8,19.4z
		 M55.4,17.4c-0.7,0-1.4-0.1-1.9-0.3c-0.5-0.2-0.6-0.3-0.9-0.1c-0.3,0.2-2.2,1.6-2.6,1.6c0,0-0.9-0.9-1.9-0.8c0,0-0.6,0.6-0.9,0.8
		c-0.2,0.2-0.4,0.4-0.5,0.6c0,0,0.4,0.3,0.2,1.1c-0.2,1-0.4,2-0.6,3.1c-0.1,0.7-0.1,1.6,1,2c1.1,0.3,2.6-0.1,4.7-3
		c0,0-1.3,0.5-1.7,0.5c-0.4,0-0.9-0.1-0.8-0.7C49.7,21.5,50,20,50,20s0-0.3,0.5-0.7c0.5-0.4,0.8-0.7,1.5-0.5
		c0.8,0.2,2.1,0.8,2.8,0.3c0.7-0.5,1.8-1.3,2-1.7C56.8,17.5,56.1,17.4,55.4,17.4L55.4,17.4z M40.5,22.7c0,0-0.3-0.4,0.1-1.5
		c0.4-1.1,1.2-1.5,1.5-0.5c0.2,0.9-0.1,1.7-0.1,1.7C41.4,22.7,40.5,22.7,40.5,22.7L40.5,22.7z M32.4,25.6c-0.2,0.5,0,1.5-0.6,1.3
		c-0.9-0.4-0.9-1.6-0.7-2.2c0.1-0.4,0.5-0.9,0.8-1.2c0.4-0.3,1.1,0.1,1.3,0.1c0.3,0,0.5,0.3,0.1,0.6C33,24.5,32.6,25,32.4,25.6
		L32.4,25.6z M32.4,29.3c-0.7,0.6-1.9-0.1-2-0.5l1.8-1.6C32.2,27.2,33.4,28.5,32.4,29.3L32.4,29.3z M12.1,28.6c0,0-2.3-1.2,0-5.7
		l2.2-0.3C14.3,22.6,14.1,27.6,12.1,28.6L12.1,28.6z M12.1,28.6">
  </path>
 </g>
</svg>